<svg width="9" height="14" viewBox="0 0 9 14" fill="none" xmlns="http://www.w3.org/2000/svg"><path d="M8.375.003L6.456 0C4.301 0 2.907 1.352 2.907 3.445v1.589H.978a.294.294 0 0 0-.302.286v2.3c0 .158.136.286.302.286h1.93v5.807c0 .158.134.286.301.286h2.517a.294.294 0 0 0 .302-.286V7.907h2.256a.294.294 0 0 0 .302-.286V5.32a.278.278 0 0 0-.088-.202.31.31 0 0 0-.213-.084H6.028V3.687c0-.647.163-.975 1.054-.975h1.293a.294.294 0 0 0 .301-.286V.288a.294.294 0 0 0-.3-.285z" fill="#525252" fill-opacity=".5"/></svg>