<svg width="14" height="14" viewBox="0 0 14 14" fill="none" xmlns="http://www.w3.org/2000/svg"><path d="M10.52 3.682a.527.527 0 0 1-.526-.526V2.104c0-.29.236-.526.526-.526h1.052c.29 0 .526.236.526.526v1.052c0 .29-.236.526-.526.526H10.52zM6.838 4.833c-.382 0-.734.112-1.038.296a.993.993 0 0 1 .297-.049A1.017 1.017 0 1 1 5.08 6.098a.98.98 0 0 1 .05-.298 1.983 1.983 0 0 0-.297 1.038 2.005 2.005 0 1 0 4.011 0 2.005 2.005 0 0 0-2.006-2.005z" fill="#525252" fill-opacity=".5"/><path fill-rule="evenodd" clip-rule="evenodd" d="M2.564 0h8.548a2.564 2.564 0 0 1 2.565 2.564v8.548a2.564 2.564 0 0 1-2.565 2.565H2.564A2.564 2.564 0 0 1 0 11.112V2.564A2.564 2.564 0 0 1 2.564 0zm7.918 4.734h2.142v-2.17c0-.833-.678-1.512-1.512-1.512H2.564c-.833 0-1.512.679-1.512 1.512v2.17h2.143A4.21 4.21 0 0 1 6.838 2.63a4.21 4.21 0 0 1 3.644 2.104zm-1.291 0a3.148 3.148 0 0 0-2.353-1.052c-.934 0-1.774.406-2.352 1.052h.005a3.14 3.14 0 0 0-.697 2.94 3.158 3.158 0 0 0 6.2-.836 3.14 3.14 0 0 0-.808-2.104h.005z" fill="#525252" fill-opacity=".5"/></svg>