<svg width="67" height="17" viewBox="0 0 67 17" fill="none" xmlns="http://www.w3.org/2000/svg"><rect width="67" height="17" rx="2" fill="#4967AB"/><path d="M15.173 9.065c.218-.25.327-.544.327-.885 0-.309-.113-.576-.338-.802a1.095 1.095 0 0 0-.802-.338h-1.644a.998.998 0 0 1 .113-.273c.027-.048.047-.083.059-.107.071-.135.126-.246.163-.333a2.42 2.42 0 0 0 .113-.356c.038-.15.056-.3.056-.451a2.584 2.584 0 0 0-.033-.499 1.499 1.499 0 0 0-.07-.297 1.387 1.387 0 0 0-.143-.267.833.833 0 0 0-.238-.24 1.301 1.301 0 0 0-.356-.155A1.773 1.773 0 0 0 11.89 4a.365.365 0 0 0-.267.113c-.08.079-.147.178-.202.297a1.763 1.763 0 0 0-.116.308 5.735 5.735 0 0 0-.074.363c-.036.166-.062.286-.08.359a1.994 1.994 0 0 1-.104.288.91.91 0 0 1-.184.285c-.13.13-.33.368-.6.712a10.77 10.77 0 0 1-.6.719c-.206.225-.356.342-.45.35a.39.39 0 0 0-.256.122.358.358 0 0 0-.107.258v3.806c0 .103.037.19.113.264a.393.393 0 0 0 .267.116c.138.004.451.09.938.261.305.103.543.181.715.235.173.053.413.11.722.172.309.061.593.092.855.092h.766c.526-.008.916-.162 1.17-.463.229-.273.326-.632.29-1.075.155-.146.261-.332.32-.558a1.22 1.22 0 0 0 0-.694 1.23 1.23 0 0 0 .256-.814c0-.127-.03-.277-.089-.451zM8.09 7.8H6.38a.365.365 0 0 0-.267.113A.365.365 0 0 0 6 8.18v3.8c0 .103.038.192.113.267a.366.366 0 0 0 .267.113h1.71a.366.366 0 0 0 .267-.113.366.366 0 0 0 .113-.267v-3.8a.365.365 0 0 0-.113-.267.365.365 0 0 0-.267-.113zm-.683 3.69a.37.37 0 0 1-.267.11.367.367 0 0 1-.27-.11.367.367 0 0 1-.11-.27.37.37 0 0 1 .11-.267.362.362 0 0 1 .27-.113c.103 0 .192.038.267.113a.365.365 0 0 1 .113.267.362.362 0 0 1-.113.27zm16.551.524h3.228V13h-4.463V5.89h1.235v6.124zM29.28 13h-1.186V7.717h1.186V13zm-1.26-6.655c0-.183.058-.334.171-.454.118-.12.284-.181.498-.181.215 0 .381.06.498.18a.624.624 0 0 1 .176.455.619.619 0 0 1-.175.449c-.118.117-.284.176-.498.176-.215 0-.381-.059-.499-.176a.629.629 0 0 1-.17-.45zm4.273 4.39l-.527.541V13h-1.187V5.5h1.187v4.326l.37-.464 1.46-1.645h1.427L33.06 9.919 35.232 13H33.86l-1.567-2.266zm5.737 2.363c-.752 0-1.362-.236-1.83-.708-.466-.476-.699-1.107-.699-1.895v-.146c0-.528.1-.998.303-1.412a2.33 2.33 0 0 1 .86-.971 2.265 2.265 0 0 1 1.23-.347c.719 0 1.274.23 1.665.689.394.459.59 1.108.59 1.948v.478h-3.452c.036.437.18.782.435 1.036.257.253.58.38.967.38.543 0 .986-.22 1.328-.659l.64.61a2.151 2.151 0 0 1-.85.738 2.658 2.658 0 0 1-1.187.259zm-.14-4.528c-.326 0-.59.114-.791.342-.199.228-.326.545-.381.952h2.26v-.088c-.025-.397-.131-.696-.317-.898-.185-.205-.443-.308-.771-.308zm9.614 1.895h.884v.952h-.884V13h-1.187v-1.582h-3.07l-.035-.723 3.066-4.804h1.226v4.575zm-3.047 0h1.86V7.497l-.088.156-1.772 2.813zm9.448-3.916L51.062 13h-1.245l2.837-6.157h-3.677V5.89h4.927v.659zm3.184 3.379l-.806.854V13h-1.235V5.89h1.235v3.336l.684-.845 2.08-2.49h1.494L57.898 9.04 60.691 13h-1.464l-2.14-3.071z" fill="#fff"/></svg>