<svg width="44" height="51" viewBox="0 0 44 51" fill="none" xmlns="http://www.w3.org/2000/svg"><path d="M.603 44.97c6.607-1.819 12.1-6.484 16.051-12.13 5.309-7.588 7.828-16.945 6.515-23.558l3.891 5.928 6.09-2.19c-2.349 11.78-9.276 20.659-16.49 26.044-5.976 4.472-12.14 6.548-16.057 5.907z" fill="#EE2A7B"/><path d="M29.341 15.062c-2.927 12.477-10.783 20.083-15.35 23.57-3.81 2.917-7.87 4.936-11.353 5.705l-.227.085c3.962-.03 9.227-2.196 14.11-5.805 4.79-3.54 13.184-11.427 16.027-24.694l-3.207 1.139z" fill="url(#a)"/><path d="M22.904 13.3c0 5.657-2.216 12.226-6.035 17.862v-.24L0 25.01l16.87-5.905V0l4.79 7.092c.814 1.686 1.244 3.81 1.244 6.207z" fill="#27AAE1"/><path d="M18.685 20.66V2.75L17.297.663v18.481l-16.091 5.71 2.83 1.004 14.649-5.198z" fill="url(#b)"/><path d="M16.877 50.389V40.013a42.07 42.07 0 0 0 4.09-3.35c4.275-3.974 11.011-11.905 13.255-23.883l9.775-3.498-10.357 15.7L44 40.69l-16.763-6.002-10.36 15.702z" fill="#27AAE1"/><path d="M43.397 9.945l-5.502 1.95-5.422 8.126a43.281 43.281 0 0 1-1.558 3.624l9.7 14.55-15.53-5.5a45.41 45.41 0 0 1-3.713 3.981l-4.495 6.745v6.305l10.142-15.195 16.378 5.804L33.271 25.14 43.397 9.945z" fill="url(#c)"/><defs><linearGradient id="a" x1="27.918" y1="20.794" x2="14.865" y2="33.519" gradientUnits="userSpaceOnUse"><stop stop-color="#fff" stop-opacity="0"/><stop offset="1" stop-color="#fff" stop-opacity=".5"/></linearGradient><linearGradient id="b" x1="2005.4" y1="2476.78" x2="1327.08" y2="4006.14" gradientUnits="userSpaceOnUse"><stop stop-color="#fff" stop-opacity="0"/><stop offset="1" stop-color="#fff" stop-opacity=".5"/></linearGradient><linearGradient id="c" x1="6146.31" y1="7814.15" x2="8306.84" y2="8966.66" gradientUnits="userSpaceOnUse"><stop stop-color="#fff" stop-opacity="0"/><stop offset="1" stop-color="#fff" stop-opacity=".5"/></linearGradient></defs></svg>