<svg width="23" height="23" viewBox="0 0 23 23" fill="none" xmlns="http://www.w3.org/2000/svg"><path d="M15.096 15.932a7.146 7.146 0 0 1-4.638 1.708c-3.96 0-7.182-3.222-7.182-7.182 0-3.96 3.222-7.182 7.182-7.182 3.96 0 7.182 3.222 7.182 7.182a7.136 7.136 0 0 1-1.5 4.377c-.31.4-.658.77-1.044 1.097zm6.813 3.659l-3.678-3.678a9.44 9.44 0 0 0 1.734-5.455C19.965 5.215 15.7.95 10.457.95 5.215.95.95 5.215.95 10.458c0 5.242 4.265 9.507 9.507 9.507 2.175 0 4.175-.74 5.778-1.973l3.636 3.636a1.438 1.438 0 0 0 2.038 0 1.44 1.44 0 0 0 0-2.037z" fill="#F3F3F3" stroke="#F3F3F3" stroke-width=".1"/></svg>