<svg width="16" height="13" viewBox="0 0 16 13" fill="none" xmlns="http://www.w3.org/2000/svg"><path d="M15.265 2.315a6.236 6.236 0 0 1-1.724.472 2.973 2.973 0 0 0 1.316-1.653 5.977 5.977 0 0 1-1.896.724 2.99 2.99 0 0 0-5.173 2.045c0 .237.02.465.069.682a8.465 8.465 0 0 1-6.165-3.128c-.258.448-.41.96-.41 1.512 0 1.035.534 1.954 1.33 2.485a2.953 2.953 0 0 1-1.352-.368v.033a3.004 3.004 0 0 0 2.396 2.938 2.985 2.985 0 0 1-.784.099 2.65 2.65 0 0 1-.566-.051A3.02 3.02 0 0 0 5.1 10.188a6.01 6.01 0 0 1-3.708 1.276 5.6 5.6 0 0 1-.716-.041 8.42 8.42 0 0 0 4.588 1.342c5.504 0 8.513-4.56 8.513-8.51a8.1 8.1 0 0 0-.011-.387 5.967 5.967 0 0 0 1.499-1.553z" fill="#525252" fill-opacity=".5"/></svg>