<svg width="40" height="40" viewBox="0 0 40 40" fill="none" xmlns="http://www.w3.org/2000/svg"><path d="M20 0c11.046 0 20 8.954 20 20a19.96 19.96 0 0 1-7.775 15.83v-2.278c0-6.752-5.473-12.225-12.225-12.225S7.775 26.8 7.775 33.552v2.278A19.96 19.96 0 0 1 0 20C0 8.954 8.954 0 20 0zm6.217 12.336a6.161 6.161 0 1 0-12.323.026 6.161 6.161 0 0 0 12.323-.026z" fill="#D3D3D3"/><path d="M32.225 33.552v2.278a20.002 20.002 0 0 1-24.45 0v-2.278c0-6.752 5.473-12.225 12.225-12.225S32.225 26.8 32.225 33.552zM24.412 7.965a6.193 6.193 0 1 1-4.37-1.805 6.153 6.153 0 0 1 4.37 1.805z" fill="#fff"/></svg>